# xmcd CD database file generated by Grip 2.95
# 
# Track frame offsets:
#       150
#       19800
#       37733
#       54543
#       77782
#       93376
#       114825
#       135140
#       150007
#       172841
#       196532
#       213968
# 
# Disc length: 3312 seconds
# 
# Revision: 3
# Processed by: cddbd v1.4PL0 Copyright (c) Steve Scherf et al.
# Submitted via: Grip 2.95
# 
DISCID=770cee0c
DTITLE=Hey Stella! - Hey Stella!
DYEAR=1900
DGENRE=
TTITLE0=The Last Thing On My Mind
TTITLE1=Carmelita
TTITLE2=Jolene
TTITLE3=Allelujah
TTITLE4=Help Me Baby
TTITLE5=Almost Blue
TTITLE6=Wayfaring Stranger
TTITLE7=Do You Think Of Me?
TTITLE8=The Messenger
TTITLE9=Rebel Rebel
TTITLE10=Heart Stands Still
TTITLE11=Fall Down Together
EXTD=
EXTT0=
EXTT1=
EXTT2=
EXTT3=
EXTT4=
EXTT5=
EXTT6=
EXTT7=
EXTT8=
EXTT9=
EXTT10=
EXTT11=
PLAYORDER=
